<svg width="237" height="662" fill="none" xmlns="http://www.w3.org/2000/svg" class="styles__Bow-sc-10ou6zw-2 kCTlfW"><g opacity="0.5"><path d="M-297.859 490.816c116.024 157.505 230.18 235.213 410.203 102.602 180.46-132.933 140.178-265.088 24.184-422.554C20.534 13.398-93.73-64.29-274.196 68.677c-180.058 132.605-139.691 264.667-23.663 422.139Z" stroke="url(#digital-frontiers_svg__a)"></path><path d="M74.012 158.103C25.931 90.169-19.475 25.993-86.28 15.226c-49.378-7.982-107.893 13.588-178.897 65.86-70.849 52.19-108.675 101.557-115.66 150.874-9.433 66.62 38.241 128.635 88.675 194.315 19.298 25.116 39.302 52.315 57.602 78.197 47.768 67.674 92.9 131.562 159.286 142.301 49.205 7.956 107.533-13.537 178.382-65.727 70.969-52.278 108.885-101.772 115.941-151.325 9.525-66.994-38.303-129.386-88.927-195.447-19.243-25.013-37.884-50.409-56.11-76.171Z" stroke="url(#digital-frontiers_svg__b)"></path><path d="M-138.213 587.945c17.465 23.71 37.072 40.97 63.077 46.749 41.124 9.129 96.429-12.434 169.066-65.941 72.756-53.594 109.876-100.175 113.416-142.359 4.037-48.247-34.109-87.722-78.258-133.434-21.375-22.115-43.484-44.977-62.412-70.672-18.928-25.695-34.206-53.588-48.99-80.559C-12.84 85.982-39.23 37.849-86.543 27.427c-41.337-9.126-96.79 12.485-169.586 66.109-72.637 53.506-109.628 99.93-113.102 141.913-3.96 47.976 34.159 87.165 78.32 132.561 21.636 22.261 44.04 45.273 63.108 71.201 19.104 25.933 34.443 54.118 49.288 81.381 13.514 24.874 26.202 48.211 40.303 67.353Z" stroke="url(#digital-frontiers_svg__c)"></path><path d="M31.723 248.066C8.993 217.209-3.973 179.648-16.53 143.348-33.735 93.502-48.622 50.464-83.924 39.466c-34.462-10.73-87.825 11.057-163.162 66.553-75.179 55.379-111.684 99.76-111.583 135.617.108 36.74 36.868 63.481 79.408 94.451 31.295 22.772 63.668 46.344 86.515 77.36 22.848 31.017 35.761 68.923 48.231 105.562 16.964 49.809 31.604 92.846 66.66 103.842 34.215 10.727 87.424-10.977 162.603-66.356 75.337-55.496 111.972-100.034 111.937-136.093-.037-36.976-36.731-63.919-79.229-95.164-31.008-22.8-63.031-46.354-85.733-77.172Z" stroke="url(#digital-frontiers_svg__d)"></path><path d="M-97.494 598.353c4.33 5.878 9.574 10.377 15.974 13.076 28.118 11.849 79.47-10.172 157.031-67.306 77.76-57.28 114.112-99.956 111.204-130.56-2.794-29.492-42.537-48.431-84.544-68.489-38.196-18.21-81.49-38.852-105.357-71.293-23.9-32.446-30.783-79.88-36.85-121.757-6.696-46.1-13.005-89.636-40.342-101.05-28.331-11.845-79.906 10.248-157.66 67.494-77.562 57.134-113.784 99.653-110.839 130.015 2.855 29.325 42.703 48.033 84.851 67.866 38.561 18.124 82.29 38.691 106.273 71.291 24.018 32.605 30.665 80.426 36.571 122.667 4.926 35.213 9.612 68.978 23.688 88.046Z" stroke="url(#digital-frontiers_svg__e)"></path><path d="M-94.022 593.377c2.282 3.098 4.984 5.518 8.215 7.243 22.91 12.223 72.644-10.291 152.112-68.829 79.706-58.714 116.088-99.727 111.239-125.439-4.595-24.368-47.366-35.899-92.682-48.098-46.605-12.536-99.416-26.719-122.99-58.763-23.609-32.049-21.496-86.691-19.655-134.883 1.78-46.86 3.488-91.157-18.422-102.77-23.118-12.254-73.074 10.332-152.78 69.045-79.468 58.539-115.715 99.361-110.834 124.866 4.616 24.23 47.596 35.546 93.091 47.49 47.056 12.357 100.381 26.406 124.083 58.54 23.696 32.169 21.268 87.256 19.118 135.86-1.8 40.014-3.489 78.14 9.505 95.738Z" stroke="url(#digital-frontiers_svg__f)"></path><path d="M-95.18 586.358c1.2 1.629 2.584 2.967 4.228 3.993 18.39 11.785 68.22-12.055 148.045-70.857 80.103-59.006 117.78-99.717 111.975-120.988-5.696-20.831-55.261-25.949-103.194-30.89-57.312-5.905-116.571-11.999-138.95-42.38-22.38-30.381-10.63-88.783.722-145.268 9.493-47.244 19.336-96.092 1.13-107.707-18.593-11.851-68.644 12.06-148.747 71.067-79.825 58.802-117.367 99.322-111.565 120.38 5.711 20.728 55.53 25.567 103.741 30.303 57.847 5.633 117.705 11.501 140.143 41.961 22.468 30.501 10.295 89.367-1.477 146.283-8.955 43.233-18.138 87.736-6.051 104.103Z" stroke="url(#digital-frontiers_svg__g)"></path></g><defs><linearGradient id="digital-frontiers_svg__a" x1="186.681" y1="335.637" x2="-414.22" y2="349.742" gradientUnits="userSpaceOnUse"><stop stop-color="#AEE7FF"></stop><stop offset="1" stop-color="#574EA0" stop-opacity="0"></stop></linearGradient><linearGradient id="digital-frontiers_svg__b" x1="186.681" y1="335.637" x2="-414.22" y2="349.742" gradientUnits="userSpaceOnUse"><stop stop-color="#AEE7FF"></stop><stop offset="1" stop-color="#574EA0" stop-opacity="0"></stop></linearGradient><linearGradient id="digital-frontiers_svg__c" x1="186.681" y1="335.637" x2="-414.22" y2="349.742" gradientUnits="userSpaceOnUse"><stop stop-color="#AEE7FF"></stop><stop offset="1" stop-color="#574EA0" stop-opacity="0"></stop></linearGradient><linearGradient id="digital-frontiers_svg__d" x1="186.681" y1="335.637" x2="-414.22" y2="349.742" gradientUnits="userSpaceOnUse"><stop stop-color="#AEE7FF"></stop><stop offset="1" stop-color="#574EA0" stop-opacity="0"></stop></linearGradient><linearGradient id="digital-frontiers_svg__e" x1="186.681" y1="335.637" x2="-414.22" y2="349.742" gradientUnits="userSpaceOnUse"><stop stop-color="#AEE7FF"></stop><stop offset="1" stop-color="#574EA0" stop-opacity="0"></stop></linearGradient><linearGradient id="digital-frontiers_svg__f" x1="186.681" y1="335.637" x2="-414.22" y2="349.742" gradientUnits="userSpaceOnUse"><stop stop-color="#AEE7FF"></stop><stop offset="1" stop-color="#574EA0" stop-opacity="0"></stop></linearGradient><linearGradient id="digital-frontiers_svg__g" x1="186.681" y1="335.637" x2="-414.22" y2="349.742" gradientUnits="userSpaceOnUse"><stop stop-color="#AEE7FF"></stop><stop offset="1" stop-color="#574EA0" stop-opacity="0"></stop></linearGradient></defs></svg>