<svg width="420" height="1259" viewBox="0 0 420 1259" fill="none" xmlns="http://www.w3.org/2000/svg">
<g opacity="0.7">
<path d="M183.025 195.928L182.667 195.579L183.025 195.927C332.248 42.4457 466.663 -6.54745 597.183 15.2696C727.758 37.0958 854.566 129.806 988.516 260.067C1122.46 390.327 1218.66 514.498 1244.12 644.413C1269.56 774.274 1224.34 910.004 1075.12 1063.45C926.255 1216.53 792.07 1265.3 661.681 1243.36C531.238 1221.41 404.462 1128.66 270.479 998.369C136.496 868.108 40.2496 743.988 14.6722 614.216C-10.8946 484.499 34.1306 349.005 183.025 195.928Z" stroke="url(#paint0_linear_487_3248)"/>
<path d="M183.025 195.928L182.667 195.579L183.025 195.927C332.248 42.4457 466.663 -6.54745 597.183 15.2696C727.758 37.0958 854.566 129.806 988.516 260.067C1122.46 390.327 1218.66 514.498 1244.12 644.413C1269.56 774.274 1224.34 910.004 1075.12 1063.45C926.255 1216.53 792.07 1265.3 661.681 1243.36C531.238 1221.41 404.462 1128.66 270.479 998.369C136.496 868.108 40.2496 743.988 14.6722 614.216C-10.8946 484.499 34.1306 349.005 183.025 195.928Z" stroke="url(#paint1_linear_487_3248)"/>
<path d="M520.17 36.0316L520.172 36.5316C424.803 36.9319 321.371 95.777 203.908 216.498C86.7095 337.015 30.9711 441.781 33.2277 536.724C34.7546 600.844 62.7721 658.372 104.889 713.394C146.942 768.331 203.015 820.724 260.732 874.652L261.017 874.918C305.256 916.23 351.48 961.247 394.077 1004.31L393.721 1004.67L394.077 1004.31C449.693 1060.63 503.732 1115.34 559.922 1155.9C616.107 1196.45 674.395 1222.84 738.498 1222.57C833.534 1222.18 936.636 1163.54 1053.83 1043.02C1171.23 922.3 1227.1 817.266 1224.9 721.855C1223.4 657.369 1195.3 599.492 1153.03 544.13C1110.77 488.788 1054.39 436.005 996.362 381.679L996.285 381.607L520.17 36.0316ZM520.17 36.0316L520.172 36.5316C584.675 36.2296 643.315 62.7088 699.834 103.419C756.335 144.116 810.671 198.998 866.596 255.487L866.671 255.562L869.414 258.334M520.17 36.0316L869.414 258.334M869.414 258.334C889.312 278.442 909.821 299.167 930.69 319.462M869.414 258.334L930.69 319.462M930.69 319.462C952.519 340.69 974.809 361.577 996.284 381.606L930.69 319.462Z" stroke="url(#paint2_linear_487_3248)"/>
<path d="M520.17 36.0316L520.172 36.5316C424.803 36.9319 321.371 95.777 203.908 216.498C86.7095 337.015 30.9711 441.781 33.2277 536.724C34.7546 600.844 62.7721 658.372 104.889 713.394C146.942 768.331 203.015 820.724 260.732 874.652L261.017 874.918C305.256 916.23 351.48 961.247 394.077 1004.31L393.721 1004.67L394.077 1004.31C449.693 1060.63 503.732 1115.34 559.922 1155.9C616.107 1196.45 674.395 1222.84 738.498 1222.57C833.534 1222.18 936.636 1163.54 1053.83 1043.02C1171.23 922.3 1227.1 817.266 1224.9 721.855C1223.4 657.369 1195.3 599.492 1153.03 544.13C1110.77 488.788 1054.39 436.005 996.362 381.679L996.285 381.607L520.17 36.0316ZM520.17 36.0316L520.172 36.5316C584.675 36.2296 643.315 62.7088 699.834 103.419C756.335 144.116 810.671 198.998 866.596 255.487L866.671 255.562L869.414 258.334M520.17 36.0316L869.414 258.334M869.414 258.334C889.312 278.442 909.821 299.167 930.69 319.462M869.414 258.334L930.69 319.462M930.69 319.462C952.519 340.69 974.809 361.577 996.284 381.606L930.69 319.462Z" stroke="url(#paint3_linear_487_3248)"/>
<path d="M244.805 765.062L245.102 764.659C196.368 728.773 151.016 695.374 116.9 659.497C82.7912 623.628 59.9553 585.324 56.1956 539.641C52.9135 499.661 65.0248 454.934 92.9969 404.738C120.969 354.544 164.783 298.911 224.858 237.135C285.064 175.224 339.583 129.772 389.127 100.333C438.671 70.8933 483.208 57.4855 523.465 59.6142L523.465 59.6142C569.534 62.0268 608.744 83.7812 645.826 116.905C682.917 150.036 717.836 194.5 755.337 242.277L755.73 241.968L755.337 242.277L755.569 242.573C791.798 288.694 829.278 336.406 872.931 378.857C916.584 421.308 965.325 457.441 1012.44 492.369L1012.74 492.592L1012.83 492.661C1061.57 528.821 1106.94 562.482 1141.07 598.611C1175.22 634.755 1198.07 673.325 1201.8 719.275C1205.06 759.456 1192.88 804.367 1164.83 854.722C1136.77 905.077 1092.86 960.844 1032.69 1022.72C972.614 1084.5 918.227 1129.85 868.832 1159.21C819.437 1188.57 775.066 1201.93 735.009 1199.76C684.353 1197.02 642.102 1170.7 601.803 1131.52C569.264 1099.87 538.066 1059.88 504.805 1017.21L504.805 1017.21L504.643 1017C468.185 970.326 430.477 922.048 386.391 879.175C342.576 836.501 293.452 800.295 245.981 765.307L245.102 764.659L244.805 765.062Z" stroke="url(#paint4_linear_487_3248)"/>
<path d="M244.805 765.062L245.102 764.659C196.368 728.773 151.016 695.374 116.9 659.497C82.7912 623.628 59.9553 585.324 56.1956 539.641C52.9135 499.661 65.0248 454.934 92.9969 404.738C120.969 354.544 164.783 298.911 224.858 237.135C285.064 175.224 339.583 129.772 389.127 100.333C438.671 70.8933 483.208 57.4855 523.465 59.6142L523.465 59.6142C569.534 62.0268 608.744 83.7812 645.826 116.905C682.917 150.036 717.836 194.5 755.337 242.277L755.73 241.968L755.337 242.277L755.569 242.573C791.798 288.694 829.278 336.406 872.931 378.857C916.584 421.308 965.325 457.441 1012.44 492.369L1012.74 492.592L1012.83 492.661C1061.57 528.821 1106.94 562.482 1141.07 598.611C1175.22 634.755 1198.07 673.325 1201.8 719.275C1205.06 759.456 1192.88 804.367 1164.83 854.722C1136.77 905.077 1092.86 960.844 1032.69 1022.72C972.614 1084.5 918.227 1129.85 868.832 1159.21C819.437 1188.57 775.066 1201.93 735.009 1199.76C684.353 1197.02 642.102 1170.7 601.803 1131.52C569.264 1099.87 538.066 1059.88 504.805 1017.21L504.805 1017.21L504.643 1017C468.185 970.326 430.477 922.048 386.391 879.175C342.576 836.501 293.452 800.295 245.981 765.307L245.102 764.659L244.805 765.062Z" stroke="url(#paint5_linear_487_3248)"/>
<path d="M691.297 255.963L691.297 255.963L691.558 256.444C726.496 320.779 762.672 387.393 815.108 438.385C867.607 489.438 935.411 523.85 1000.98 557.121L1001.21 557.236C1046.08 579.999 1087.82 601.176 1119.81 625.341C1151.85 649.543 1174.05 676.692 1179.84 711.358C1185.48 745.172 1174.6 785.893 1146.68 834.222C1118.77 882.543 1073.86 938.409 1011.54 1002.49C949.364 1066.43 894.922 1112.76 847.564 1141.92C800.199 1171.08 759.98 1183.03 726.221 1178.29C691.641 1173.44 664.099 1151.97 639.236 1120.59C614.391 1089.23 592.275 1048.04 568.512 1003.78L568.449 1003.66C533.487 938.511 497.252 871.025 444.415 819.642C391.577 768.26 323.105 733.923 257.003 700.793L256.883 700.733C211.978 678.215 170.184 657.257 138.143 633.298C106.08 609.321 83.8546 582.389 78.0364 547.958C72.3605 514.344 83.1773 473.808 111.007 425.647C138.832 377.493 183.63 321.779 245.811 257.838C308.123 193.761 362.696 147.307 410.211 118.055C457.733 88.7979 498.135 76.7842 532.127 81.4832C566.941 86.302 594.716 107.732 619.811 139.085C644.91 170.444 667.277 211.662 691.297 255.963Z" stroke="url(#paint6_linear_487_3248)"/>
<path d="M691.297 255.963L691.297 255.963L691.558 256.444C726.496 320.779 762.672 387.393 815.108 438.385C867.607 489.438 935.411 523.85 1000.98 557.121L1001.21 557.236C1046.08 579.999 1087.82 601.176 1119.81 625.341C1151.85 649.543 1174.05 676.692 1179.84 711.358C1185.48 745.172 1174.6 785.893 1146.68 834.222C1118.77 882.543 1073.86 938.409 1011.54 1002.49C949.364 1066.43 894.922 1112.76 847.564 1141.92C800.199 1171.08 759.98 1183.03 726.221 1178.29C691.641 1173.44 664.099 1151.97 639.236 1120.59C614.391 1089.23 592.275 1048.04 568.512 1003.78L568.449 1003.66C533.487 938.511 497.252 871.025 444.415 819.642C391.577 768.26 323.105 733.923 257.003 700.793L256.883 700.733C211.978 678.215 170.184 657.257 138.143 633.298C106.08 609.321 83.8546 582.389 78.0364 547.958C72.3605 514.344 83.1773 473.808 111.007 425.647C138.832 377.493 183.63 321.779 245.811 257.838C308.123 193.761 362.696 147.307 410.211 118.055C457.733 88.7979 498.135 76.7842 532.127 81.4832C566.941 86.302 594.716 107.732 619.811 139.085C644.91 170.444 667.277 211.662 691.297 255.963Z" stroke="url(#paint7_linear_487_3248)"/>
<path d="M1159.4 701.502L1158.92 701.631C1166.39 729.815 1156.45 766.811 1128.47 813.373C1100.51 859.915 1054.58 915.913 990.263 982.053C926.109 1048.03 871.579 1095.38 826.018 1124.55C780.437 1153.73 743.933 1164.64 715.785 1157.92C702.981 1154.86 691.765 1148.07 681.817 1138.4L681.468 1138.75L681.817 1138.39C665.64 1122.7 652.697 1099.34 641.256 1071.77C629.888 1044.37 620.023 1012.87 609.938 980.656L609.746 980.045L609.597 979.567C597.468 940.821 584.538 899.516 567.743 861.163C550.88 822.651 530.107 787.083 502.304 760.046C474.535 733.008 438.4 713.22 399.433 697.429C360.466 681.639 318.633 669.835 279.458 658.786L279.093 658.683C236.382 646.616 194.915 634.901 162.285 619.444C129.552 603.938 105.845 584.728 98.626 557.755C91.156 529.805 101.045 493.01 128.933 446.632C156.809 400.275 202.606 344.445 266.761 278.474C331.08 212.367 385.791 164.893 431.542 135.632C477.314 106.357 514.017 95.375 542.366 102.06L542.366 102.06C569.697 108.488 589.76 131.582 606.389 163.791C622.997 195.96 636.115 237.094 649.628 279.468L649.666 279.585C674.192 356.591 702.036 443.989 757.349 497.779C784.982 524.684 820.849 544.476 859.5 560.338C898.148 576.197 939.612 588.139 978.453 599.326L978.463 599.329L978.463 599.329L978.783 599.421C1021.41 611.726 1062.82 623.678 1095.4 639.357C1128.06 655.079 1151.73 674.49 1158.91 701.631L1159.4 701.502Z" stroke="url(#paint8_linear_487_3248)"/>
<path d="M1159.4 701.502L1158.92 701.631C1166.39 729.815 1156.45 766.811 1128.47 813.373C1100.51 859.915 1054.58 915.913 990.263 982.053C926.109 1048.03 871.579 1095.38 826.018 1124.55C780.437 1153.73 743.933 1164.64 715.785 1157.92C702.981 1154.86 691.765 1148.07 681.817 1138.4L681.468 1138.75L681.817 1138.39C665.64 1122.7 652.697 1099.34 641.256 1071.77C629.888 1044.37 620.023 1012.87 609.938 980.656L609.746 980.045L609.597 979.567C597.468 940.821 584.538 899.516 567.743 861.163C550.88 822.651 530.107 787.083 502.304 760.046C474.535 733.008 438.4 713.22 399.433 697.429C360.466 681.639 318.633 669.835 279.458 658.786L279.093 658.683C236.382 646.616 194.915 634.901 162.285 619.444C129.552 603.938 105.845 584.728 98.626 557.755C91.156 529.805 101.045 493.01 128.933 446.632C156.809 400.275 202.606 344.445 266.761 278.474C331.08 212.367 385.791 164.893 431.542 135.632C477.314 106.357 514.017 95.375 542.366 102.06L542.366 102.06C569.697 108.488 589.76 131.582 606.389 163.791C622.997 195.96 636.115 237.094 649.628 279.468L649.666 279.585C674.192 356.591 702.036 443.989 757.349 497.779C784.982 524.684 820.849 544.476 859.5 560.338C898.148 576.197 939.612 588.139 978.453 599.326L978.463 599.329L978.463 599.329L978.783 599.421C1021.41 611.726 1062.82 623.678 1095.4 639.357C1128.06 655.079 1151.73 674.49 1158.91 701.631L1159.4 701.502Z" stroke="url(#paint9_linear_487_3248)"/>
<path d="M686.804 1127.93L686.803 1127.93C671.916 1113.48 662.255 1088.24 655.181 1057.01C648.111 1025.8 643.647 988.734 639.083 950.732C633.507 904.592 627.551 855.335 616.141 810.957C604.733 766.585 587.856 727.022 560.392 700.314L560.043 700.673L560.392 700.314C532.928 673.64 492.909 657.874 448.236 647.7C403.557 637.525 354.152 632.93 307.875 628.644C263.115 624.502 219.642 620.464 185.325 611.94C150.967 603.406 126.005 590.427 117.961 568.573C113.715 557.069 113.946 542.938 118.775 526.063C123.604 509.189 133.021 489.608 147.096 467.234C175.245 422.485 221.977 366.64 287.711 299.044C353.642 231.246 408.359 182.821 452.503 153.331C474.575 138.586 493.985 128.587 510.817 123.262C527.65 117.937 541.869 117.298 553.588 121.22C575.792 128.65 589.628 153.175 599.316 187.168C608.972 221.052 614.451 264.131 620.093 308.491L620.129 308.77L620.167 309.077C625.959 354.691 632.141 403.375 643.669 447.285C655.223 491.289 672.162 530.566 699.524 557.175C726.853 583.783 766.571 599.62 810.88 609.941C855.111 620.243 903.984 625.063 949.79 629.58L950.049 629.605C994.68 634.016 1038.01 638.306 1072.21 647.048C1106.45 655.8 1131.34 668.962 1139.38 690.95C1143.63 702.555 1143.39 716.787 1138.54 733.762C1133.68 750.736 1124.23 770.418 1110.11 792.893C1081.86 837.842 1034.98 893.889 969.051 961.688C903.317 1029.28 848.798 1077.56 804.853 1106.94C782.88 1121.64 763.569 1131.6 746.837 1136.9C730.103 1142.19 715.985 1142.82 704.367 1138.9C697.814 1136.68 692.027 1133.01 686.804 1127.93Z" stroke="url(#paint10_linear_487_3248)"/>
<path d="M686.804 1127.93L686.803 1127.93C671.916 1113.48 662.255 1088.24 655.181 1057.01C648.111 1025.8 643.647 988.734 639.083 950.732C633.507 904.592 627.551 855.335 616.141 810.957C604.733 766.585 587.856 727.022 560.392 700.314L560.043 700.673L560.392 700.314C532.928 673.64 492.909 657.874 448.236 647.7C403.557 637.525 354.152 632.93 307.875 628.644C263.115 624.502 219.642 620.464 185.325 611.94C150.967 603.406 126.005 590.427 117.961 568.573C113.715 557.069 113.946 542.938 118.775 526.063C123.604 509.189 133.021 489.608 147.096 467.234C175.245 422.485 221.977 366.64 287.711 299.044C353.642 231.246 408.359 182.821 452.503 153.331C474.575 138.586 493.985 128.587 510.817 123.262C527.65 117.937 541.869 117.298 553.588 121.22C575.792 128.65 589.628 153.175 599.316 187.168C608.972 221.052 614.451 264.131 620.093 308.491L620.129 308.77L620.167 309.077C625.959 354.691 632.141 403.375 643.669 447.285C655.223 491.289 672.162 530.566 699.524 557.175C726.853 583.783 766.571 599.62 810.88 609.941C855.111 620.243 903.984 625.063 949.79 629.58L950.049 629.605C994.68 634.016 1038.01 638.306 1072.21 647.048C1106.45 655.8 1131.34 668.962 1139.38 690.95C1143.63 702.555 1143.39 716.787 1138.54 733.762C1133.68 750.736 1124.23 770.418 1110.11 792.893C1081.86 837.842 1034.98 893.889 969.051 961.688C903.317 1029.28 848.798 1077.56 804.853 1106.94C782.88 1121.64 763.569 1131.6 746.837 1136.9C730.103 1142.19 715.985 1142.82 704.367 1138.9C697.814 1136.68 692.027 1133.01 686.804 1127.93Z" stroke="url(#paint11_linear_487_3248)"/>
<path d="M682.424 1115.06L682.425 1115.06C685.156 1117.72 688.133 1119.77 691.486 1121.16L691.491 1121.16C700.914 1125.21 713.365 1124.55 728.877 1119.09C744.381 1113.63 762.87 1103.39 784.313 1088.37C827.196 1058.35 881.807 1009.29 947.838 941.39C1014.1 873.253 1061.78 817.075 1090.69 773.161C1105.15 751.203 1114.9 732.332 1119.94 716.58C1124.98 700.821 1125.29 688.255 1120.97 678.849C1116.73 669.65 1107.7 663.055 1094.99 658.444C1082.28 653.834 1065.97 651.234 1047.29 649.98C1009.92 647.472 963.226 650.354 917.264 653.196L917.112 653.205C862.229 656.602 806.377 660.058 757.781 656.387C709.157 652.715 667.677 641.901 641.699 616.638C615.721 591.376 603.754 550.214 598.725 501.711C593.7 453.238 595.595 397.312 597.458 342.355L597.463 342.202L597.475 341.87C599.029 295.954 600.607 249.329 597.082 212.139C595.315 193.499 592.269 177.264 587.312 164.69C582.354 152.113 575.513 143.27 566.2 139.294M682.424 1115.06L566.396 138.834M682.424 1115.06C675.542 1108.38 670.552 1097.99 667.008 1084.77C663.466 1071.55 661.381 1055.57 660.271 1037.78C658.051 1002.2 659.735 959.464 661.413 917.308L660.914 917.288M682.424 1115.06L660.914 917.288M566.2 139.294L566.396 138.834M566.2 139.294C566.2 139.294 566.2 139.294 566.2 139.294L566.396 138.834M566.2 139.294C556.677 135.234 544.124 135.892 528.512 141.373C512.908 146.852 494.316 157.126 472.77 172.19C429.681 202.318 374.855 251.547 308.595 319.684C242.564 387.584 195.048 443.544 166.232 487.248C151.823 509.102 142.104 527.87 137.079 543.52C132.051 559.178 131.743 571.643 136.048 580.949C140.28 590.096 149.333 596.617 162.087 601.137C174.838 605.655 191.216 608.146 209.976 609.283C247.297 611.543 293.911 608.437 339.866 605.374L340.597 605.325C395.991 601.587 452.396 597.797 501.434 601.248C550.454 604.698 592.234 615.39 618.281 640.72C644.361 666.082 656.216 707.547 661.024 756.444C665.835 805.358 663.605 861.83 661.413 917.306L661.413 917.308L660.914 917.288M566.396 138.834C527.64 122.312 440.773 183.046 308.236 319.335C176.16 455.152 118.069 543.278 135.594 581.159C152.798 618.342 247.749 612.014 339.875 605.875L340.63 605.824C451.436 598.345 566.106 590.679 617.932 641.078C669.826 691.543 665.297 806.317 660.914 917.288" stroke="url(#paint12_linear_487_3248)"/>
<path d="M682.424 1115.06L682.425 1115.06C685.156 1117.72 688.133 1119.77 691.486 1121.16L691.491 1121.16C700.914 1125.21 713.365 1124.55 728.877 1119.09C744.381 1113.63 762.87 1103.39 784.313 1088.37C827.196 1058.35 881.807 1009.29 947.838 941.39C1014.1 873.253 1061.78 817.075 1090.69 773.161C1105.15 751.203 1114.9 732.332 1119.94 716.58C1124.98 700.821 1125.29 688.255 1120.97 678.849C1116.73 669.65 1107.7 663.055 1094.99 658.444C1082.28 653.834 1065.97 651.234 1047.29 649.98C1009.92 647.472 963.226 650.354 917.264 653.196L917.112 653.205C862.229 656.602 806.377 660.058 757.781 656.387C709.157 652.715 667.677 641.901 641.699 616.638C615.721 591.376 603.754 550.214 598.725 501.711C593.7 453.238 595.595 397.312 597.458 342.355L597.463 342.202L597.475 341.87C599.029 295.954 600.607 249.329 597.082 212.139C595.315 193.499 592.269 177.264 587.312 164.69C582.354 152.113 575.513 143.27 566.2 139.294M682.424 1115.06L566.396 138.834M682.424 1115.06C675.542 1108.38 670.552 1097.99 667.008 1084.77C663.466 1071.55 661.381 1055.57 660.271 1037.78C658.051 1002.2 659.735 959.464 661.413 917.308L660.914 917.288M682.424 1115.06L660.914 917.288M566.2 139.294L566.396 138.834M566.2 139.294C566.2 139.294 566.2 139.294 566.2 139.294L566.396 138.834M566.2 139.294C556.677 135.234 544.124 135.892 528.512 141.373C512.908 146.852 494.316 157.126 472.77 172.19C429.681 202.318 374.855 251.547 308.595 319.684C242.564 387.584 195.048 443.544 166.232 487.248C151.823 509.102 142.104 527.87 137.079 543.52C132.051 559.178 131.743 571.643 136.048 580.949C140.28 590.096 149.333 596.617 162.087 601.137C174.838 605.655 191.216 608.146 209.976 609.283C247.297 611.543 293.911 608.437 339.866 605.374L340.597 605.325C395.991 601.587 452.396 597.797 501.434 601.248C550.454 604.698 592.234 615.39 618.281 640.72C644.361 666.082 656.216 707.547 661.024 756.444C665.835 805.358 663.605 861.83 661.413 917.306L661.413 917.308L660.914 917.288M566.396 138.834C527.64 122.312 440.773 183.046 308.236 319.335C176.16 455.152 118.069 543.278 135.594 581.159C152.798 618.342 247.749 612.014 339.875 605.875L340.63 605.824C451.436 598.345 566.106 590.679 617.932 641.078C669.826 691.543 665.297 806.317 660.914 917.288" stroke="url(#paint13_linear_487_3248)"/>
</g>
<circle cx="188.5" cy="456.5" r="6.5" fill="#653E7C"/>
<circle cx="373.5" cy="866.5" r="15.5" fill="#522846"/>
<defs>
<linearGradient id="paint0_linear_487_3248" x1="1040.57" y1="1026.04" x2="219.63" y2="221.518" gradientUnits="userSpaceOnUse">
<stop stop-color="#D84594"/>
<stop offset="1" stop-color="#574EA0"/>
</linearGradient>
<linearGradient id="paint1_linear_487_3248" x1="1248.86" y1="534.766" x2="-149.557" y2="797.684" gradientUnits="userSpaceOnUse">
<stop stop-color="#AEE7FF"/>
<stop offset="1" stop-color="#574EA0" stop-opacity="0"/>
</linearGradient>
<linearGradient id="paint2_linear_487_3248" x1="1023.21" y1="1009.79" x2="236.322" y2="238.657" gradientUnits="userSpaceOnUse">
<stop stop-color="#D84594"/>
<stop offset="1" stop-color="#574EA0"/>
</linearGradient>
<linearGradient id="paint3_linear_487_3248" x1="1222.86" y1="538.897" x2="-117.53" y2="790.899" gradientUnits="userSpaceOnUse">
<stop stop-color="#AEE7FF"/>
<stop offset="1" stop-color="#574EA0" stop-opacity="0"/>
</linearGradient>
<linearGradient id="paint4_linear_487_3248" x1="1008.14" y1="995.46" x2="251.203" y2="253.676" gradientUnits="userSpaceOnUse">
<stop stop-color="#D84594"/>
<stop offset="1" stop-color="#574EA0"/>
</linearGradient>
<linearGradient id="paint5_linear_487_3248" x1="1200.19" y1="542.487" x2="-89.1808" y2="784.898" gradientUnits="userSpaceOnUse">
<stop stop-color="#AEE7FF"/>
<stop offset="1" stop-color="#574EA0" stop-opacity="0"/>
</linearGradient>
<linearGradient id="paint6_linear_487_3248" x1="994.207" y1="982.289" x2="264.951" y2="267.63" gradientUnits="userSpaceOnUse">
<stop stop-color="#D84594"/>
<stop offset="1" stop-color="#574EA0"/>
</linearGradient>
<linearGradient id="paint7_linear_487_3248" x1="1179.23" y1="545.881" x2="-62.9867" y2="779.427" gradientUnits="userSpaceOnUse">
<stop stop-color="#AEE7FF"/>
<stop offset="1" stop-color="#574EA0" stop-opacity="0"/>
</linearGradient>
<linearGradient id="paint8_linear_487_3248" x1="981.005" y1="969.816" x2="277.779" y2="280.675" gradientUnits="userSpaceOnUse">
<stop stop-color="#D84594"/>
<stop offset="1" stop-color="#574EA0"/>
</linearGradient>
<linearGradient id="paint9_linear_487_3248" x1="1159.42" y1="548.985" x2="-38.4399" y2="774.189" gradientUnits="userSpaceOnUse">
<stop stop-color="#AEE7FF"/>
<stop offset="1" stop-color="#574EA0" stop-opacity="0"/>
</linearGradient>
<linearGradient id="paint10_linear_487_3248" x1="979.188" y1="957.817" x2="300.612" y2="284.52" gradientUnits="userSpaceOnUse">
<stop stop-color="#D84594"/>
<stop offset="1" stop-color="#574EA0"/>
</linearGradient>
<linearGradient id="paint11_linear_487_3248" x1="1153.58" y1="551.706" x2="-15.8511" y2="774.114" gradientUnits="userSpaceOnUse">
<stop stop-color="#AEE7FF"/>
<stop offset="1" stop-color="#574EA0" stop-opacity="0"/>
</linearGradient>
<linearGradient id="paint12_linear_487_3248" x1="966.698" y1="946.458" x2="311.972" y2="296.839" gradientUnits="userSpaceOnUse">
<stop stop-color="#D84594"/>
<stop offset="1" stop-color="#574EA0"/>
</linearGradient>
<linearGradient id="paint13_linear_487_3248" x1="1134.95" y1="554.621" x2="6.64918" y2="769.204" gradientUnits="userSpaceOnUse">
<stop stop-color="#AEE7FF"/>
<stop offset="1" stop-color="#574EA0" stop-opacity="0"/>
</linearGradient>
</defs>
</svg>
