<svg width="337" height="336" viewBox="0 0 337 336" fill="none" xmlns="http://www.w3.org/2000/svg">
<g filter="url(#filter0_d_447_3413)">
<mask id="mask0_447_3413" style="mask-type:alpha" maskUnits="userSpaceOnUse" x="3" y="0" width="331" height="331">
<circle cx="168.5" cy="165.5" r="165.5" fill="white"/>
</mask>
<g mask="url(#mask0_447_3413)">
<circle cx="168.5" cy="165.5" r="165.5" fill="black"/>
<g filter="url(#filter1_f_447_3413)">
<path d="M232.916 117.09C286.333 118.027 328.874 162.291 327.937 215.708V215.708C327 269.125 282.934 311.871 229.517 310.934V310.934C176.1 309.997 133.559 265.733 134.496 212.316V212.316C135.433 158.899 179.499 116.153 232.916 117.09V117.09Z" fill="url(#paint0_radial_447_3413)"/>
<path d="M232.916 117.09C286.333 118.027 328.874 162.291 327.937 215.708V215.708C327 269.125 282.934 311.871 229.517 310.934V310.934C176.1 309.997 133.559 265.733 134.496 212.316V212.316C135.433 158.899 179.499 116.153 232.916 117.09V117.09Z" stroke="#574EA0" stroke-width="12.8238"/>
</g>
<g style="mix-blend-mode:color" filter="url(#filter2_f_447_3413)">
<rect x="161.038" y="74.3351" width="179.761" height="179.552" rx="89.776" transform="rotate(98.1727 161.038 74.3351)" fill="url(#paint1_radial_447_3413)"/>
</g>
<g style="mix-blend-mode:screen" filter="url(#filter3_f_447_3413)">
<path d="M196.378 136.233C260.147 160.22 292.397 231.361 268.41 295.13L265.414 303.093C241.427 366.862 170.287 399.111 106.518 375.124V375.124C42.749 351.137 10.4993 279.997 34.4863 216.228L37.4817 208.265C61.4686 144.496 132.609 112.246 196.378 136.233V136.233Z" fill="url(#paint2_radial_447_3413)"/>
</g>
<g filter="url(#filter4_f_447_3413)">
<path d="M122.699 20.1813C154.876 -18.7656 212.681 -24.1318 251.628 8.04586V8.04586C290.575 40.2235 296.209 98.0026 264.032 136.95V136.95C231.854 175.896 174.049 181.263 135.102 149.085V149.085C96.1556 116.907 90.5211 59.1282 122.699 20.1813V20.1813Z" fill="url(#paint3_angular_447_3413)"/>
</g>
<g style="mix-blend-mode:lighten" filter="url(#filter5_f_447_3413)">
<rect x="311.086" y="-5.14709" width="272.439" height="272.122" rx="136.061" transform="rotate(98.1727 311.086 -5.14709)" fill="#D84594"/>
</g>
</g>
</g>
<defs>
<filter id="filter0_d_447_3413" x="0.540467" y="0" width="335.919" height="335.919" filterUnits="userSpaceOnUse" color-interpolation-filters="sRGB">
<feFlood flood-opacity="0" result="BackgroundImageFix"/>
<feColorMatrix in="SourceAlpha" type="matrix" values="0 0 0 0 0 0 0 0 0 0 0 0 0 0 0 0 0 0 127 0" result="hardAlpha"/>
<feOffset dy="2.45953"/>
<feGaussianBlur stdDeviation="1.22977"/>
<feComposite in2="hardAlpha" operator="out"/>
<feColorMatrix type="matrix" values="0 0 0 0 0 0 0 0 0 0 0 0 0 0 0 0 0 0 0.25 0"/>
<feBlend mode="normal" in2="BackgroundImageFix" result="effect1_dropShadow_447_3413"/>
<feBlend mode="normal" in="SourceGraphic" in2="effect1_dropShadow_447_3413" result="shape"/>
</filter>
<filter id="filter1_f_447_3413" x="66.9507" y="49.545" width="328.531" height="328.934" filterUnits="userSpaceOnUse" color-interpolation-filters="sRGB">
<feFlood flood-opacity="0" result="BackgroundImageFix"/>
<feBlend mode="normal" in="SourceGraphic" in2="BackgroundImageFix" result="shape"/>
<feGaussianBlur stdDeviation="30.5589" result="effect1_foregroundBlur_447_3413"/>
</filter>
<filter id="filter2_f_447_3413" x="-89.1754" y="1.86731" width="297.145" height="297.347" filterUnits="userSpaceOnUse" color-interpolation-filters="sRGB">
<feFlood flood-opacity="0" result="BackgroundImageFix"/>
<feBlend mode="normal" in="SourceGraphic" in2="BackgroundImageFix" result="shape"/>
<feGaussianBlur stdDeviation="29.3923" result="effect1_foregroundBlur_447_3413"/>
</filter>
<filter id="filter3_f_447_3413" x="-40.5615" y="61.1856" width="384.019" height="388.986" filterUnits="userSpaceOnUse" color-interpolation-filters="sRGB">
<feFlood flood-opacity="0" result="BackgroundImageFix"/>
<feBlend mode="normal" in="SourceGraphic" in2="BackgroundImageFix" result="shape"/>
<feGaussianBlur stdDeviation="33.558" result="effect1_foregroundBlur_447_3413"/>
</filter>
<filter id="filter4_f_447_3413" x="25.452" y="-89.31" width="335.826" height="335.751" filterUnits="userSpaceOnUse" color-interpolation-filters="sRGB">
<feFlood flood-opacity="0" result="BackgroundImageFix"/>
<feBlend mode="normal" in="SourceGraphic" in2="BackgroundImageFix" result="shape"/>
<feGaussianBlur stdDeviation="38.1745" result="effect1_foregroundBlur_447_3413"/>
</filter>
<filter id="filter5_f_447_3413" x="-51.3367" y="-98.1851" width="416.758" height="417.064" filterUnits="userSpaceOnUse" color-interpolation-filters="sRGB">
<feFlood flood-opacity="0" result="BackgroundImageFix"/>
<feBlend mode="normal" in="SourceGraphic" in2="BackgroundImageFix" result="shape"/>
<feGaussianBlur stdDeviation="36.15" result="effect1_foregroundBlur_447_3413"/>
</filter>
<radialGradient id="paint0_radial_447_3413" cx="0" cy="0" r="1" gradientUnits="userSpaceOnUse" gradientTransform="translate(233.801 171.346) rotate(-179.595) scale(421.164 422.041)">
<stop stop-color="#424FA2"/>
<stop offset="1" stop-color="#4E4EA1" stop-opacity="0"/>
</radialGradient>
<radialGradient id="paint1_radial_447_3413" cx="0" cy="0" r="1" gradientUnits="userSpaceOnUse" gradientTransform="translate(250.919 164.111) rotate(90) scale(89.776 89.8805)">
<stop stop-color="#38FF70"/>
<stop offset="1" stop-color="#4AE074" stop-opacity="0.65"/>
</radialGradient>
<radialGradient id="paint2_radial_447_3413" cx="0" cy="0" r="1" gradientUnits="userSpaceOnUse" gradientTransform="translate(151.448 255.679) rotate(-159.386) scale(123.362 405.802)">
<stop stop-color="#8B78FF"/>
<stop offset="1" stop-color="#6349FF" stop-opacity="0.37"/>
</radialGradient>
<radialGradient id="paint3_angular_447_3413" cx="0" cy="0" r="1" gradientUnits="userSpaceOnUse" gradientTransform="translate(193.365 78.5654) rotate(129.563) scale(91.4743 91.6649)">
<stop stop-color="#FFE072"/>
<stop offset="1" stop-color="#FFD84B" stop-opacity="0"/>
</radialGradient>
</defs>
</svg>
